<svg width="280" height="303" viewBox="0 0 280 303" fill="none" xmlns="http://www.w3.org/2000/svg">
<path d="M127.979 1.55859C173.299 -3.89274 227.297 11.0406 258.722 38.8711C274.396 52.7521 280.402 67.515 282.793 84.1484C283.99 92.4771 284.281 101.275 284.421 110.678C284.561 120.073 284.55 130.074 285.147 140.772C285.746 151.477 287.103 161.786 288.307 171.71C289.511 181.642 290.561 191.188 290.554 200.404C290.539 218.813 286.31 235.884 270.645 251.962C239.212 284.222 180.188 305.913 127.959 302.125C75.7746 298.341 31.9032 265.316 9.60059 233.039C-1.48144 217.001 -0.908496 202.384 3.02051 187.556C4.99004 180.122 7.79417 172.664 10.4053 164.927C13.012 157.203 15.4176 149.223 16.5557 140.808C17.6918 132.407 17.845 125.263 17.7881 118.843C17.731 112.411 17.4641 106.747 17.7529 101.242C18.3277 90.2898 21.1031 80.0285 32.2256 66.1387C54.5866 38.2143 82.7458 6.99979 127.979 1.55859Z" stroke="#FFBCFD" stroke-width="0.893471"/>
</svg>