<svg width="214" height="286" viewBox="0 0 214 286" fill="none" xmlns="http://www.w3.org/2000/svg">
<path d="M93.8408 1.49023C126.99 -3.62717 166.515 10.3916 189.529 36.5498C201.009 49.5979 205.417 63.4875 207.172 79.1543C208.05 86.9945 208.264 95.2759 208.366 104.122C208.469 112.962 208.461 122.369 208.899 132.432C209.338 142.5 210.332 152.196 211.214 161.533C212.096 170.876 212.867 179.86 212.861 188.535C212.851 205.874 209.744 221.944 198.266 237.063C175.238 267.396 132.021 287.762 93.8135 284.206C55.6498 280.654 23.5154 249.642 7.16113 219.265C-0.966846 204.167 -0.548086 190.396 2.33496 176.431C3.77915 169.435 5.83567 162.415 7.74902 155.139C9.65967 147.872 11.4213 140.369 12.2549 132.459C13.0872 124.56 13.1999 117.843 13.1582 111.805C13.1164 105.758 12.9209 100.424 13.1328 95.2422C13.5549 84.9211 15.5937 75.26 23.7451 62.1953C40.1518 35.8996 60.7696 6.59578 93.8408 1.49023Z" stroke="#FFBCFD" stroke-width="0.893471"/>
</svg>
