<svg width="357" height="102" viewBox="0 0 357 102" fill="none" xmlns="http://www.w3.org/2000/svg">
<rect width="357" height="102" rx="12" fill="#390177"/>
<path d="M19.0114 58V46.3636H26.8523V48.392H21.4716V51.1648H26.4489V53.1932H21.4716V55.9716H26.875V58H19.0114ZM31.7287 58.142C31.0658 58.142 30.4654 57.9716 29.9276 57.6307C29.3935 57.286 28.9692 56.7803 28.6548 56.1136C28.3442 55.4432 28.1889 54.6212 28.1889 53.6477C28.1889 52.6477 28.3499 51.8163 28.6719 51.1534C28.9938 50.4867 29.4219 49.9886 29.956 49.6591C30.4938 49.3258 31.0829 49.1591 31.723 49.1591C32.2116 49.1591 32.6188 49.2424 32.9446 49.4091C33.2741 49.572 33.5393 49.7765 33.7401 50.0227C33.9446 50.2652 34.0999 50.5038 34.206 50.7386H34.2798V46.3636H36.6946V58H34.3082V56.6023H34.206C34.0923 56.8447 33.9313 57.0852 33.723 57.3239C33.5185 57.5587 33.2514 57.7538 32.9219 57.9091C32.5961 58.0644 32.1984 58.142 31.7287 58.142ZM32.4957 56.2159C32.8859 56.2159 33.2154 56.1098 33.4844 55.8977C33.7571 55.6818 33.9654 55.3807 34.1094 54.9943C34.2571 54.608 34.331 54.1553 34.331 53.6364C34.331 53.1174 34.259 52.6667 34.1151 52.2841C33.9711 51.9015 33.7628 51.6061 33.4901 51.3977C33.2173 51.1894 32.8859 51.0852 32.4957 51.0852C32.098 51.0852 31.7628 51.1932 31.4901 51.4091C31.2173 51.625 31.0109 51.9242 30.8707 52.3068C30.7306 52.6894 30.6605 53.1326 30.6605 53.6364C30.6605 54.1439 30.7306 54.5928 30.8707 54.983C31.0147 55.3693 31.2211 55.6723 31.4901 55.892C31.7628 56.108 32.098 56.2159 32.4957 56.2159ZM44.0312 54.2841V49.2727H46.4517V58H44.1278V56.4148H44.0369C43.84 56.9261 43.5123 57.3371 43.054 57.6477C42.5994 57.9583 42.0445 58.1136 41.3892 58.1136C40.8059 58.1136 40.2926 57.9811 39.8494 57.7159C39.4063 57.4508 39.0597 57.0739 38.8097 56.5852C38.5634 56.0966 38.4384 55.5114 38.4347 54.8295V49.2727H40.8551V54.3977C40.8589 54.9129 40.9972 55.3201 41.2699 55.6193C41.5426 55.9186 41.9081 56.0682 42.3665 56.0682C42.6581 56.0682 42.9309 56.0019 43.1847 55.8693C43.4384 55.733 43.643 55.5322 43.7983 55.267C43.9574 55.0019 44.035 54.6742 44.0312 54.2841ZM52.081 58.1705C51.187 58.1705 50.4181 57.9811 49.7741 57.6023C49.134 57.2197 48.6416 56.6894 48.2969 56.0114C47.956 55.3333 47.7855 54.553 47.7855 53.6705C47.7855 52.7765 47.9579 51.9924 48.3026 51.3182C48.651 50.6402 49.1454 50.1117 49.7855 49.733C50.4257 49.3504 51.187 49.1591 52.0696 49.1591C52.831 49.1591 53.4976 49.2973 54.0696 49.5739C54.6416 49.8504 55.0942 50.2386 55.4276 50.7386C55.7609 51.2386 55.9446 51.8258 55.9787 52.5H53.6946C53.6302 52.0644 53.4598 51.714 53.1832 51.4489C52.9105 51.1799 52.5526 51.0455 52.1094 51.0455C51.7344 51.0455 51.4067 51.1477 51.1264 51.3523C50.8499 51.553 50.634 51.8466 50.4787 52.233C50.3234 52.6193 50.2457 53.0871 50.2457 53.6364C50.2457 54.1932 50.3215 54.6667 50.473 55.0568C50.6283 55.447 50.8461 55.7443 51.1264 55.9489C51.4067 56.1534 51.7344 56.2557 52.1094 56.2557C52.3859 56.2557 52.634 56.1989 52.8537 56.0852C53.0772 55.9716 53.2609 55.8068 53.4048 55.5909C53.5526 55.3712 53.6491 55.108 53.6946 54.8011H55.9787C55.9408 55.4678 55.759 56.0549 55.4332 56.5625C55.1113 57.0663 54.6662 57.4602 54.098 57.7443C53.5298 58.0284 52.8575 58.1705 52.081 58.1705ZM59.767 58.1648C59.2102 58.1648 58.714 58.0682 58.2784 57.875C57.8428 57.678 57.4981 57.3883 57.2443 57.0057C56.9943 56.6193 56.8693 56.1383 56.8693 55.5625C56.8693 55.0777 56.9583 54.6705 57.1364 54.3409C57.3144 54.0114 57.5568 53.7462 57.8636 53.5455C58.1705 53.3447 58.5189 53.1932 58.9091 53.0909C59.303 52.9886 59.7159 52.9167 60.1477 52.875C60.6553 52.822 61.0644 52.7727 61.375 52.7273C61.6856 52.678 61.911 52.6061 62.0511 52.5114C62.1913 52.4167 62.2614 52.2765 62.2614 52.0909V52.0568C62.2614 51.697 62.1477 51.4186 61.9205 51.2216C61.697 51.0246 61.3788 50.9261 60.9659 50.9261C60.5303 50.9261 60.1837 51.0227 59.9261 51.2159C59.6686 51.4053 59.4981 51.6439 59.4148 51.9318L57.1761 51.75C57.2898 51.2197 57.5133 50.7614 57.8466 50.375C58.1799 49.9848 58.6098 49.6856 59.1364 49.4773C59.6667 49.2652 60.2803 49.1591 60.9773 49.1591C61.4621 49.1591 61.9261 49.2159 62.3693 49.3295C62.8163 49.4432 63.2121 49.6193 63.5568 49.858C63.9053 50.0966 64.1799 50.4034 64.3807 50.7784C64.5814 51.1496 64.6818 51.5947 64.6818 52.1136V58H62.3864V56.7898H62.3182C62.178 57.0625 61.9905 57.303 61.7557 57.5114C61.5208 57.7159 61.2386 57.8769 60.9091 57.9943C60.5795 58.108 60.1989 58.1648 59.767 58.1648ZM60.4602 56.4943C60.8163 56.4943 61.1307 56.4242 61.4034 56.2841C61.6761 56.1402 61.8902 55.947 62.0455 55.7045C62.2008 55.4621 62.2784 55.1875 62.2784 54.8807V53.9545C62.2027 54.0038 62.0985 54.0492 61.9659 54.0909C61.8371 54.1288 61.6913 54.1648 61.5284 54.1989C61.3655 54.2292 61.2027 54.2576 61.0398 54.2841C60.8769 54.3068 60.7292 54.3277 60.5966 54.3466C60.3125 54.3883 60.0644 54.4545 59.8523 54.5455C59.6402 54.6364 59.4754 54.7595 59.358 54.9148C59.2405 55.0663 59.1818 55.2557 59.1818 55.483C59.1818 55.8125 59.3011 56.0644 59.5398 56.2386C59.7822 56.4091 60.089 56.4943 60.4602 56.4943ZM70.9517 49.2727V51.0909H65.696V49.2727H70.9517ZM66.8892 47.1818H69.3097V55.3182C69.3097 55.5417 69.3438 55.7159 69.4119 55.8409C69.4801 55.9621 69.5748 56.0473 69.696 56.0966C69.821 56.1458 69.965 56.1705 70.1278 56.1705C70.2415 56.1705 70.3551 56.161 70.4688 56.142C70.5824 56.1193 70.6695 56.1023 70.7301 56.0909L71.1108 57.892C70.9896 57.9299 70.8191 57.9735 70.5994 58.0227C70.3797 58.0758 70.1127 58.108 69.7983 58.1193C69.215 58.142 68.7036 58.0644 68.2642 57.8864C67.8286 57.7083 67.4896 57.4318 67.2472 57.0568C67.0047 56.6818 66.8854 56.2083 66.8892 55.6364V47.1818ZM72.2784 58V49.2727H74.6989V58H72.2784ZM73.4943 48.1477C73.1345 48.1477 72.8258 48.0284 72.5682 47.7898C72.3144 47.5473 72.1875 47.2576 72.1875 46.9205C72.1875 46.5871 72.3144 46.3011 72.5682 46.0625C72.8258 45.8201 73.1345 45.6989 73.4943 45.6989C73.8542 45.6989 74.161 45.8201 74.4148 46.0625C74.6723 46.3011 74.8011 46.5871 74.8011 46.9205C74.8011 47.2576 74.6723 47.5473 74.4148 47.7898C74.161 48.0284 73.8542 48.1477 73.4943 48.1477ZM80.331 58.1705C79.4484 58.1705 78.6851 57.983 78.0412 57.608C77.401 57.2292 76.9067 56.7027 76.5582 56.0284C76.2098 55.3504 76.0355 54.5644 76.0355 53.6705C76.0355 52.7689 76.2098 51.9811 76.5582 51.3068C76.9067 50.6288 77.401 50.1023 78.0412 49.7273C78.6851 49.3485 79.4484 49.1591 80.331 49.1591C81.2135 49.1591 81.9749 49.3485 82.6151 49.7273C83.259 50.1023 83.7552 50.6288 84.1037 51.3068C84.4522 51.9811 84.6264 52.7689 84.6264 53.6705C84.6264 54.5644 84.4522 55.3504 84.1037 56.0284C83.7552 56.7027 83.259 57.2292 82.6151 57.608C81.9749 57.983 81.2135 58.1705 80.331 58.1705ZM80.3423 56.2955C80.7438 56.2955 81.0791 56.1818 81.348 55.9545C81.617 55.7235 81.8196 55.4091 81.956 55.0114C82.0961 54.6136 82.1662 54.161 82.1662 53.6534C82.1662 53.1458 82.0961 52.6932 81.956 52.2955C81.8196 51.8977 81.617 51.5833 81.348 51.3523C81.0791 51.1212 80.7438 51.0057 80.3423 51.0057C79.937 51.0057 79.5961 51.1212 79.3196 51.3523C79.0469 51.5833 78.8404 51.8977 78.7003 52.2955C78.5639 52.6932 78.4957 53.1458 78.4957 53.6534C78.4957 54.161 78.5639 54.6136 78.7003 55.0114C78.8404 55.4091 79.0469 55.7235 79.3196 55.9545C79.5961 56.1818 79.937 56.2955 80.3423 56.2955ZM88.3707 52.9545V58H85.9503V49.2727H88.2571V50.8125H88.3594C88.5526 50.3049 88.8764 49.9034 89.331 49.608C89.7855 49.3087 90.3366 49.1591 90.9844 49.1591C91.5904 49.1591 92.1188 49.2917 92.5696 49.5568C93.0204 49.822 93.3707 50.2008 93.6207 50.6932C93.8707 51.1818 93.9957 51.7652 93.9957 52.4432V58H91.5753V52.875C91.5791 52.3409 91.4427 51.9242 91.1662 51.625C90.8897 51.322 90.509 51.1705 90.0241 51.1705C89.6984 51.1705 89.4105 51.2405 89.1605 51.3807C88.9143 51.5208 88.7211 51.7254 88.581 51.9943C88.4446 52.2595 88.3745 52.5795 88.3707 52.9545ZM98.142 58.1648C97.5852 58.1648 97.089 58.0682 96.6534 57.875C96.2178 57.678 95.8731 57.3883 95.6193 57.0057C95.3693 56.6193 95.2443 56.1383 95.2443 55.5625C95.2443 55.0777 95.3333 54.6705 95.5114 54.3409C95.6894 54.0114 95.9318 53.7462 96.2386 53.5455C96.5455 53.3447 96.8939 53.1932 97.2841 53.0909C97.678 52.9886 98.0909 52.9167 98.5227 52.875C99.0303 52.822 99.4394 52.7727 99.75 52.7273C100.061 52.678 100.286 52.6061 100.426 52.5114C100.566 52.4167 100.636 52.2765 100.636 52.0909V52.0568C100.636 51.697 100.523 51.4186 100.295 51.2216C100.072 51.0246 99.7538 50.9261 99.3409 50.9261C98.9053 50.9261 98.5587 51.0227 98.3011 51.2159C98.0436 51.4053 97.8731 51.6439 97.7898 51.9318L95.5511 51.75C95.6648 51.2197 95.8883 50.7614 96.2216 50.375C96.5549 49.9848 96.9848 49.6856 97.5114 49.4773C98.0417 49.2652 98.6553 49.1591 99.3523 49.1591C99.8371 49.1591 100.301 49.2159 100.744 49.3295C101.191 49.4432 101.587 49.6193 101.932 49.858C102.28 50.0966 102.555 50.4034 102.756 50.7784C102.956 51.1496 103.057 51.5947 103.057 52.1136V58H100.761V56.7898H100.693C100.553 57.0625 100.366 57.303 100.131 57.5114C99.8958 57.7159 99.6136 57.8769 99.2841 57.9943C98.9545 58.108 98.5739 58.1648 98.142 58.1648ZM98.8352 56.4943C99.1913 56.4943 99.5057 56.4242 99.7784 56.2841C100.051 56.1402 100.265 55.947 100.42 55.7045C100.576 55.4621 100.653 55.1875 100.653 54.8807V53.9545C100.578 54.0038 100.473 54.0492 100.341 54.0909C100.212 54.1288 100.066 54.1648 99.9034 54.1989C99.7405 54.2292 99.5777 54.2576 99.4148 54.2841C99.2519 54.3068 99.1042 54.3277 98.9716 54.3466C98.6875 54.3883 98.4394 54.4545 98.2273 54.5455C98.0152 54.6364 97.8504 54.7595 97.733 54.9148C97.6155 55.0663 97.5568 55.2557 97.5568 55.483C97.5568 55.8125 97.6761 56.0644 97.9148 56.2386C98.1572 56.4091 98.464 56.4943 98.8352 56.4943ZM107.105 46.3636V58H104.685V46.3636H107.105ZM112.293 58V46.3636H116.884C117.762 46.3636 118.512 46.5208 119.134 46.8352C119.759 47.1458 120.234 47.5871 120.56 48.1591C120.889 48.7273 121.054 49.3958 121.054 50.1648C121.054 50.9375 120.887 51.6023 120.554 52.1591C120.221 52.7121 119.738 53.1364 119.105 53.4318C118.476 53.7273 117.715 53.875 116.821 53.875H113.747V51.8977H116.423C116.893 51.8977 117.283 51.8333 117.594 51.7045C117.904 51.5758 118.135 51.3826 118.287 51.125C118.442 50.8674 118.52 50.5473 118.52 50.1648C118.52 49.7784 118.442 49.4527 118.287 49.1875C118.135 48.9223 117.902 48.7216 117.588 48.5852C117.277 48.4451 116.885 48.375 116.412 48.375H114.753V58H112.293ZM118.577 52.7045L121.469 58H118.753L115.923 52.7045H118.577ZM126.334 58.1705C125.436 58.1705 124.663 57.9886 124.016 57.625C123.372 57.2576 122.875 56.7386 122.527 56.0682C122.179 55.3939 122.004 54.5966 122.004 53.6761C122.004 52.7784 122.179 51.9905 122.527 51.3125C122.875 50.6345 123.366 50.1061 123.999 49.7273C124.635 49.3485 125.381 49.1591 126.237 49.1591C126.813 49.1591 127.349 49.2519 127.845 49.4375C128.345 49.6193 128.781 49.8939 129.152 50.2614C129.527 50.6288 129.819 51.0909 130.027 51.6477C130.235 52.2008 130.339 52.8485 130.339 53.5909V54.2557H122.97V52.7557H128.061C128.061 52.4072 127.985 52.0985 127.834 51.8295C127.682 51.5606 127.472 51.3504 127.203 51.1989C126.938 51.0436 126.629 50.9659 126.277 50.9659C125.91 50.9659 125.584 51.0511 125.3 51.2216C125.019 51.3883 124.8 51.6136 124.641 51.8977C124.482 52.178 124.4 52.4905 124.396 52.8352V54.2614C124.396 54.6932 124.476 55.0663 124.635 55.3807C124.798 55.6951 125.027 55.9375 125.322 56.108C125.618 56.2784 125.968 56.3636 126.374 56.3636C126.643 56.3636 126.889 56.3258 127.112 56.25C127.336 56.1742 127.527 56.0606 127.686 55.9091C127.845 55.7576 127.966 55.572 128.05 55.3523L130.288 55.5C130.175 56.0379 129.942 56.5076 129.589 56.9091C129.241 57.3068 128.79 57.6174 128.237 57.8409C127.688 58.0606 127.054 58.1705 126.334 58.1705ZM138.93 51.7614L136.714 51.8977C136.677 51.7083 136.595 51.5379 136.47 51.3864C136.345 51.2311 136.18 51.108 135.976 51.017C135.775 50.9223 135.535 50.875 135.254 50.875C134.879 50.875 134.563 50.9545 134.305 51.1136C134.048 51.2689 133.919 51.4773 133.919 51.7386C133.919 51.947 134.002 52.1231 134.169 52.267C134.336 52.411 134.622 52.5265 135.027 52.6136L136.607 52.9318C137.455 53.1061 138.088 53.3864 138.504 53.7727C138.921 54.1591 139.129 54.6667 139.129 55.2955C139.129 55.8674 138.961 56.3693 138.624 56.8011C138.29 57.233 137.832 57.5701 137.249 57.8125C136.669 58.0511 136 58.1705 135.243 58.1705C134.088 58.1705 133.167 57.9299 132.482 57.4489C131.8 56.964 131.4 56.3049 131.283 55.4716L133.663 55.3466C133.735 55.6989 133.91 55.9678 134.186 56.1534C134.463 56.3352 134.817 56.4261 135.249 56.4261C135.673 56.4261 136.014 56.3447 136.271 56.1818C136.533 56.0152 136.665 55.8011 136.669 55.5398C136.665 55.3201 136.572 55.1402 136.391 55C136.209 54.8561 135.929 54.7462 135.55 54.6705L134.038 54.3693C133.186 54.1989 132.552 53.9034 132.135 53.483C131.722 53.0625 131.516 52.5265 131.516 51.875C131.516 51.3144 131.667 50.8314 131.97 50.4261C132.277 50.0208 132.707 49.7083 133.26 49.4886C133.817 49.2689 134.468 49.1591 135.214 49.1591C136.317 49.1591 137.184 49.392 137.817 49.858C138.453 50.3239 138.824 50.9583 138.93 51.7614ZM144.347 58.1705C143.464 58.1705 142.701 57.983 142.057 57.608C141.417 57.2292 140.922 56.7027 140.574 56.0284C140.225 55.3504 140.051 54.5644 140.051 53.6705C140.051 52.7689 140.225 51.9811 140.574 51.3068C140.922 50.6288 141.417 50.1023 142.057 49.7273C142.701 49.3485 143.464 49.1591 144.347 49.1591C145.229 49.1591 145.991 49.3485 146.631 49.7273C147.275 50.1023 147.771 50.6288 148.119 51.3068C148.468 51.9811 148.642 52.7689 148.642 53.6705C148.642 54.5644 148.468 55.3504 148.119 56.0284C147.771 56.7027 147.275 57.2292 146.631 57.608C145.991 57.983 145.229 58.1705 144.347 58.1705ZM144.358 56.2955C144.759 56.2955 145.095 56.1818 145.364 55.9545C145.633 55.7235 145.835 55.4091 145.972 55.0114C146.112 54.6136 146.182 54.161 146.182 53.6534C146.182 53.1458 146.112 52.6932 145.972 52.2955C145.835 51.8977 145.633 51.5833 145.364 51.3523C145.095 51.1212 144.759 51.0057 144.358 51.0057C143.953 51.0057 143.612 51.1212 143.335 51.3523C143.063 51.5833 142.856 51.8977 142.716 52.2955C142.58 52.6932 142.511 53.1458 142.511 53.6534C142.511 54.161 142.58 54.6136 142.716 55.0114C142.856 55.4091 143.063 55.7235 143.335 55.9545C143.612 56.1818 143.953 56.2955 144.358 56.2955ZM155.562 54.2841V49.2727H157.983V58H155.659V56.4148H155.568C155.371 56.9261 155.044 57.3371 154.585 57.6477C154.131 57.9583 153.576 58.1136 152.92 58.1136C152.337 58.1136 151.824 57.9811 151.381 57.7159C150.938 57.4508 150.591 57.0739 150.341 56.5852C150.095 56.0966 149.97 55.5114 149.966 54.8295V49.2727H152.386V54.3977C152.39 54.9129 152.528 55.3201 152.801 55.6193C153.074 55.9186 153.439 56.0682 153.898 56.0682C154.189 56.0682 154.462 56.0019 154.716 55.8693C154.97 55.733 155.174 55.5322 155.33 55.267C155.489 55.0019 155.566 54.6742 155.562 54.2841ZM159.669 58V49.2727H162.016V50.7955H162.107C162.266 50.2538 162.533 49.8447 162.908 49.5682C163.283 49.2879 163.714 49.1477 164.203 49.1477C164.324 49.1477 164.455 49.1553 164.595 49.1705C164.735 49.1856 164.858 49.2064 164.964 49.233V51.3807C164.851 51.3466 164.694 51.3163 164.493 51.2898C164.292 51.2633 164.108 51.25 163.942 51.25C163.586 51.25 163.268 51.3277 162.987 51.483C162.711 51.6345 162.491 51.8466 162.328 52.1193C162.169 52.392 162.089 52.7064 162.089 53.0625V58H159.669ZM169.503 58.1705C168.609 58.1705 167.84 57.9811 167.196 57.6023C166.556 57.2197 166.063 56.6894 165.719 56.0114C165.378 55.3333 165.207 54.553 165.207 53.6705C165.207 52.7765 165.38 51.9924 165.724 51.3182C166.073 50.6402 166.567 50.1117 167.207 49.733C167.848 49.3504 168.609 49.1591 169.491 49.1591C170.253 49.1591 170.92 49.2973 171.491 49.5739C172.063 49.8504 172.516 50.2386 172.849 50.7386C173.183 51.2386 173.366 51.8258 173.401 52.5H171.116C171.052 52.0644 170.882 51.714 170.605 51.4489C170.332 51.1799 169.974 51.0455 169.531 51.0455C169.156 51.0455 168.829 51.1477 168.548 51.3523C168.272 51.553 168.056 51.8466 167.901 52.233C167.745 52.6193 167.668 53.0871 167.668 53.6364C167.668 54.1932 167.743 54.6667 167.895 55.0568C168.05 55.447 168.268 55.7443 168.548 55.9489C168.829 56.1534 169.156 56.2557 169.531 56.2557C169.808 56.2557 170.056 56.1989 170.276 56.0852C170.499 55.9716 170.683 55.8068 170.827 55.5909C170.974 55.3712 171.071 55.108 171.116 54.8011H173.401C173.363 55.4678 173.181 56.0549 172.855 56.5625C172.533 57.0663 172.088 57.4602 171.52 57.7443C170.952 58.0284 170.279 58.1705 169.503 58.1705ZM178.678 58.1705C177.78 58.1705 177.007 57.9886 176.359 57.625C175.715 57.2576 175.219 56.7386 174.871 56.0682C174.522 55.3939 174.348 54.5966 174.348 53.6761C174.348 52.7784 174.522 51.9905 174.871 51.3125C175.219 50.6345 175.71 50.1061 176.342 49.7273C176.979 49.3485 177.725 49.1591 178.581 49.1591C179.157 49.1591 179.693 49.2519 180.189 49.4375C180.689 49.6193 181.125 49.8939 181.496 50.2614C181.871 50.6288 182.162 51.0909 182.371 51.6477C182.579 52.2008 182.683 52.8485 182.683 53.5909V54.2557H175.314V52.7557H180.405C180.405 52.4072 180.329 52.0985 180.178 51.8295C180.026 51.5606 179.816 51.3504 179.547 51.1989C179.282 51.0436 178.973 50.9659 178.621 50.9659C178.253 50.9659 177.928 51.0511 177.643 51.2216C177.363 51.3883 177.143 51.6136 176.984 51.8977C176.825 52.178 176.744 52.4905 176.74 52.8352V54.2614C176.74 54.6932 176.82 55.0663 176.979 55.3807C177.142 55.6951 177.371 55.9375 177.666 56.108C177.962 56.2784 178.312 56.3636 178.717 56.3636C178.986 56.3636 179.232 56.3258 179.456 56.25C179.679 56.1742 179.871 56.0606 180.03 55.9091C180.189 55.7576 180.31 55.572 180.393 55.3523L182.632 55.5C182.518 56.0379 182.286 56.5076 181.933 56.9091C181.585 57.3068 181.134 57.6174 180.581 57.8409C180.032 58.0606 179.397 58.1705 178.678 58.1705ZM191.274 51.7614L189.058 51.8977C189.02 51.7083 188.939 51.5379 188.814 51.3864C188.689 51.2311 188.524 51.108 188.32 51.017C188.119 50.9223 187.878 50.875 187.598 50.875C187.223 50.875 186.907 50.9545 186.649 51.1136C186.392 51.2689 186.263 51.4773 186.263 51.7386C186.263 51.947 186.346 52.1231 186.513 52.267C186.679 52.411 186.965 52.5265 187.371 52.6136L188.95 52.9318C189.799 53.1061 190.431 53.3864 190.848 53.7727C191.265 54.1591 191.473 54.6667 191.473 55.2955C191.473 55.8674 191.304 56.3693 190.967 56.8011C190.634 57.233 190.176 57.5701 189.592 57.8125C189.013 58.0511 188.344 58.1705 187.587 58.1705C186.431 58.1705 185.511 57.9299 184.825 57.4489C184.143 56.964 183.744 56.3049 183.626 55.4716L186.007 55.3466C186.079 55.6989 186.253 55.9678 186.53 56.1534C186.806 56.3352 187.161 56.4261 187.592 56.4261C188.017 56.4261 188.357 56.3447 188.615 56.1818C188.876 56.0152 189.009 55.8011 189.013 55.5398C189.009 55.3201 188.916 55.1402 188.734 55C188.553 54.8561 188.272 54.7462 187.893 54.6705L186.382 54.3693C185.53 54.1989 184.895 53.9034 184.479 53.483C184.066 53.0625 183.859 52.5265 183.859 51.875C183.859 51.3144 184.011 50.8314 184.314 50.4261C184.621 50.0208 185.051 49.7083 185.604 49.4886C186.161 49.2689 186.812 49.1591 187.558 49.1591C188.661 49.1591 189.528 49.392 190.161 49.858C190.797 50.3239 191.168 50.9583 191.274 51.7614Z" fill="#FFE3D8"/>
<path d="M24.8011 74.3109C24.7415 73.8071 24.4995 73.416 24.0753 73.1376C23.651 72.8592 23.1307 72.72 22.5142 72.72C22.0634 72.72 21.669 72.7929 21.331 72.9387C20.9962 73.0846 20.7344 73.2851 20.5455 73.5403C20.3598 73.7955 20.267 74.0855 20.267 74.4103C20.267 74.6821 20.3317 74.9158 20.4609 75.1113C20.5935 75.3036 20.7625 75.4643 20.968 75.5936C21.1735 75.7195 21.389 75.8239 21.6143 75.9068C21.8397 75.9863 22.0469 76.051 22.2358 76.1007L23.2699 76.3791C23.535 76.4487 23.83 76.5448 24.1548 76.6674C24.483 76.7901 24.7962 76.9574 25.0945 77.1696C25.3961 77.3784 25.6446 77.6468 25.8402 77.975C26.0357 78.3031 26.1335 78.7058 26.1335 79.1831C26.1335 79.7333 25.9893 80.2304 25.701 80.6745C25.416 81.1187 24.9983 81.4717 24.4482 81.7335C23.9013 81.9953 23.2367 82.1262 22.4545 82.1262C21.7254 82.1262 21.094 82.0086 20.5604 81.7733C20.0301 81.5379 19.6125 81.2098 19.3075 80.7889C19.0059 80.368 18.8352 79.8791 18.7955 79.3223H20.0682C20.1013 79.7067 20.2306 80.0249 20.456 80.2768C20.6847 80.5254 20.973 80.711 21.321 80.8336C21.6723 80.9529 22.0502 81.0126 22.4545 81.0126C22.9252 81.0126 23.3478 80.9364 23.7223 80.7839C24.0968 80.6281 24.3935 80.4127 24.6122 80.1376C24.831 79.8592 24.9403 79.5344 24.9403 79.1632C24.9403 78.8251 24.8459 78.55 24.657 78.3379C24.468 78.1258 24.2195 77.9534 23.9112 77.8208C23.603 77.6883 23.2699 77.5723 22.9119 77.4728L21.6591 77.1149C20.8636 76.8862 20.2339 76.5597 19.7699 76.1355C19.3059 75.7112 19.0739 75.1561 19.0739 74.47C19.0739 73.8999 19.228 73.4028 19.5362 72.9785C19.8478 72.551 20.2654 72.2195 20.7891 71.9842C21.3161 71.7456 21.9044 71.6262 22.554 71.6262C23.2102 71.6262 23.7936 71.7439 24.304 71.9792C24.8144 72.2112 25.2188 72.5294 25.517 72.9338C25.8187 73.3381 25.9777 73.7972 25.9943 74.3109H24.8011ZM30.8539 82.1064C30.1645 82.1064 29.5596 81.9423 29.0392 81.6142C28.5222 81.286 28.1178 80.827 27.8262 80.237C27.5378 79.6471 27.3936 78.9577 27.3936 78.1689C27.3936 77.3734 27.5378 76.679 27.8262 76.0858C28.1178 75.4925 28.5222 75.0318 29.0392 74.7037C29.5596 74.3755 30.1645 74.2115 30.8539 74.2115C31.5433 74.2115 32.1465 74.3755 32.6635 74.7037C33.1839 75.0318 33.5882 75.4925 33.8766 76.0858C34.1683 76.679 34.3141 77.3734 34.3141 78.1689C34.3141 78.9577 34.1683 79.6471 33.8766 80.237C33.5882 80.827 33.1839 81.286 32.6635 81.6142C32.1465 81.9423 31.5433 82.1064 30.8539 82.1064ZM30.8539 81.0524C31.3775 81.0524 31.8084 80.9181 32.1465 80.6497C32.4846 80.3812 32.7348 80.0282 32.8972 79.5907C33.0596 79.1532 33.1408 78.6793 33.1408 78.1689C33.1408 77.6584 33.0596 77.1828 32.8972 76.742C32.7348 76.3012 32.4846 75.9449 32.1465 75.6731C31.8084 75.4013 31.3775 75.2654 30.8539 75.2654C30.3302 75.2654 29.8993 75.4013 29.5613 75.6731C29.2232 75.9449 28.973 76.3012 28.8105 76.742C28.6481 77.1828 28.5669 77.6584 28.5669 78.1689C28.5669 78.6793 28.6481 79.1532 28.8105 79.5907C28.973 80.0282 29.2232 80.3812 29.5613 80.6497C29.8993 80.9181 30.3302 81.0524 30.8539 81.0524ZM38.9574 82.1064C38.2415 82.1064 37.625 81.9373 37.108 81.5993C36.5909 81.2612 36.1932 80.7955 35.9148 80.2022C35.6364 79.609 35.4972 78.9312 35.4972 78.1689C35.4972 77.3933 35.6397 76.7089 35.9247 76.1156C36.2131 75.519 36.6141 75.0533 37.1278 74.7186C37.6449 74.3805 38.2481 74.2115 38.9375 74.2115C39.4744 74.2115 39.9583 74.3109 40.3892 74.5098C40.8201 74.7086 41.1731 74.987 41.4482 75.345C41.7232 75.7029 41.8939 76.1206 41.9602 76.5978H40.7869C40.6974 76.2498 40.4986 75.9416 40.1903 75.6731C39.8854 75.4013 39.4744 75.2654 38.9574 75.2654C38.5 75.2654 38.099 75.3848 37.7543 75.6234C37.4129 75.8587 37.1461 76.1918 36.9538 76.6227C36.7649 77.0502 36.6705 77.5524 36.6705 78.1291C36.6705 78.719 36.7633 79.2328 36.9489 79.6703C37.1378 80.1078 37.4029 80.4475 37.7443 80.6895C38.089 80.9314 38.4934 81.0524 38.9574 81.0524C39.2623 81.0524 39.5391 80.9993 39.7876 80.8933C40.0362 80.7872 40.2467 80.6348 40.419 80.4359C40.5914 80.237 40.714 79.9984 40.7869 79.72H41.9602C41.8939 80.1708 41.7299 80.5768 41.468 80.938C41.2095 81.296 40.8665 81.581 40.4389 81.7931C40.0147 82.002 39.5208 82.1064 38.9574 82.1064ZM43.4254 81.9473V74.3109H44.5987V81.9473H43.4254ZM44.022 73.0382C43.7933 73.0382 43.5961 72.9603 43.4304 72.8045C43.268 72.6487 43.1868 72.4615 43.1868 72.2427C43.1868 72.024 43.268 71.8367 43.4304 71.6809C43.5961 71.5252 43.7933 71.4473 44.022 71.4473C44.2507 71.4473 44.4463 71.5252 44.6087 71.6809C44.7744 71.8367 44.8572 72.024 44.8572 72.2427C44.8572 72.4615 44.7744 72.6487 44.6087 72.8045C44.4463 72.9603 44.2507 73.0382 44.022 73.0382ZM48.7449 82.1262C48.2609 82.1262 47.8218 82.0351 47.4274 81.8528C47.033 81.6672 46.7198 81.4004 46.4877 81.0524C46.2557 80.7011 46.1397 80.2768 46.1397 79.7797C46.1397 79.3422 46.2259 78.9875 46.3983 78.7157C46.5706 78.4406 46.801 78.2252 47.0893 78.0694C47.3777 77.9136 47.6958 77.7976 48.0439 77.7214C48.3952 77.6419 48.7482 77.5789 49.1028 77.5325C49.5668 77.4728 49.943 77.4281 50.2314 77.3983C50.523 77.3651 50.7351 77.3104 50.8677 77.2342C51.0036 77.158 51.0716 77.0254 51.0716 76.8365V76.7967C51.0716 76.3062 50.9373 75.925 50.6689 75.6532C50.4037 75.3815 50.001 75.2456 49.4608 75.2456C48.9006 75.2456 48.4615 75.3682 48.1433 75.6135C47.8251 75.8587 47.6014 76.1206 47.4721 76.399L46.3585 76.0012C46.5574 75.5372 46.8225 75.176 47.1539 74.9174C47.4887 74.6556 47.8533 74.4733 48.2477 74.3706C48.6454 74.2645 49.0365 74.2115 49.421 74.2115C49.6663 74.2115 49.948 74.2413 50.2662 74.301C50.5877 74.3573 50.8975 74.475 51.1958 74.6539C51.4975 74.8329 51.7477 75.103 51.9466 75.4643C52.1454 75.8256 52.2449 76.3095 52.2449 76.916V81.9473H51.0716V80.9132H51.0119C50.9324 81.0789 50.7998 81.2562 50.6142 81.4451C50.4286 81.6341 50.1816 81.7948 49.8734 81.9274C49.5652 82.06 49.189 82.1262 48.7449 82.1262ZM48.9238 81.0723C49.3878 81.0723 49.7789 80.9811 50.0971 80.7988C50.4186 80.6165 50.6606 80.3812 50.823 80.0929C50.9887 79.8045 51.0716 79.5012 51.0716 79.1831V78.1092C51.0218 78.1689 50.9125 78.2235 50.7434 78.2733C50.5777 78.3197 50.3855 78.3611 50.1667 78.3975C49.9513 78.4307 49.7408 78.4605 49.5353 78.487C49.3332 78.5102 49.1691 78.5301 49.0431 78.5467C48.7382 78.5865 48.4532 78.6511 48.188 78.7406C47.9262 78.8268 47.7141 78.9577 47.5517 79.1333C47.3926 79.3057 47.313 79.541 47.313 79.8393C47.313 80.247 47.4638 80.5552 47.7654 80.764C48.0704 80.9695 48.4565 81.0723 48.9238 81.0723ZM55.3097 71.7654V81.9473H54.1364V71.7654H55.3097ZM63.9785 84.97C63.4118 84.97 62.9245 84.8971 62.5169 84.7512C62.1092 84.6087 61.7695 84.4198 61.4977 84.1845C61.2292 83.9525 61.0154 83.7039 60.8564 83.4387L61.791 82.7825C61.8971 82.9217 62.0313 83.0808 62.1937 83.2598C62.3561 83.4421 62.5782 83.5995 62.8599 83.7321C63.1449 83.868 63.5178 83.9359 63.9785 83.9359C64.595 83.9359 65.1038 83.7868 65.5048 83.4885C65.9058 83.1902 66.1064 82.7228 66.1064 82.0865V80.5353H66.0069C65.9208 80.6745 65.7981 80.8469 65.639 81.0524C65.4833 81.2546 65.2579 81.4352 64.9629 81.5943C64.6712 81.7501 64.2768 81.8279 63.7797 81.8279C63.1632 81.8279 62.6097 81.6821 62.1191 81.3904C61.6319 81.0988 61.2458 80.6745 60.9608 80.1177C60.679 79.5609 60.5382 78.8848 60.5382 78.0893C60.5382 77.3071 60.6757 76.626 60.9508 76.046C61.2259 75.4627 61.6087 75.0119 62.0993 74.6937C62.5898 74.3722 63.1565 74.2115 63.7995 74.2115C64.2967 74.2115 64.6911 74.2943 64.9828 74.46C65.2778 74.6225 65.5031 74.8081 65.6589 75.0169C65.818 75.2224 65.9406 75.3914 66.0268 75.524H66.1461V74.3109H67.2797V82.166C67.2797 82.8223 67.1305 83.3559 66.8322 83.7669C66.5372 84.1812 66.1395 84.4844 65.639 84.6767C65.1419 84.8722 64.5884 84.97 63.9785 84.97ZM63.9387 80.774C64.4094 80.774 64.8071 80.6663 65.1319 80.4508C65.4567 80.2354 65.7037 79.9255 65.8727 79.5211C66.0417 79.1168 66.1262 78.6329 66.1262 78.0694C66.1262 77.5192 66.0434 77.0337 65.8777 76.6127C65.7119 76.1918 65.4667 75.862 65.1419 75.6234C64.8171 75.3848 64.416 75.2654 63.9387 75.2654C63.4416 75.2654 63.0273 75.3914 62.6958 75.6433C62.3677 75.8952 62.1208 76.2333 61.9551 76.6575C61.7927 77.0817 61.7115 77.5524 61.7115 78.0694C61.7115 78.5997 61.7943 79.0687 61.96 79.4764C62.1291 79.8807 62.3777 80.1989 62.7058 80.4309C63.0372 80.6596 63.4482 80.774 63.9387 80.774ZM71.4245 82.1262C70.9406 82.1262 70.5015 82.0351 70.1071 81.8528C69.7127 81.6672 69.3994 81.4004 69.1674 81.0524C68.9354 80.7011 68.8194 80.2768 68.8194 79.7797C68.8194 79.3422 68.9056 78.9875 69.0779 78.7157C69.2503 78.4406 69.4806 78.2252 69.769 78.0694C70.0574 77.9136 70.3755 77.7976 70.7235 77.7214C71.0749 77.6419 71.4279 77.5789 71.7825 77.5325C72.2465 77.4728 72.6227 77.4281 72.911 77.3983C73.2027 77.3651 73.4148 77.3104 73.5474 77.2342C73.6833 77.158 73.7512 77.0254 73.7512 76.8365V76.7967C73.7512 76.3062 73.617 75.925 73.3485 75.6532C73.0834 75.3815 72.6807 75.2456 72.1404 75.2456C71.5803 75.2456 71.1412 75.3682 70.823 75.6135C70.5048 75.8587 70.2811 76.1206 70.1518 76.399L69.0382 76.0012C69.237 75.5372 69.5022 75.176 69.8336 74.9174C70.1684 74.6556 70.533 74.4733 70.9274 74.3706C71.3251 74.2645 71.7162 74.2115 72.1007 74.2115C72.3459 74.2115 72.6277 74.2413 72.9458 74.301C73.2673 74.3573 73.5772 74.475 73.8755 74.6539C74.1771 74.8329 74.4274 75.103 74.6262 75.4643C74.8251 75.8256 74.9245 76.3095 74.9245 76.916V81.9473H73.7512V80.9132H73.6916C73.612 81.0789 73.4795 81.2562 73.2939 81.4451C73.1083 81.6341 72.8613 81.7948 72.5531 81.9274C72.2449 82.06 71.8687 82.1262 71.4245 82.1262ZM71.6035 81.0723C72.0675 81.0723 72.4586 80.9811 72.7768 80.7988C73.0983 80.6165 73.3403 80.3812 73.5027 80.0929C73.6684 79.8045 73.7512 79.5012 73.7512 79.1831V78.1092C73.7015 78.1689 73.5922 78.2235 73.4231 78.2733C73.2574 78.3197 73.0652 78.3611 72.8464 78.3975C72.631 78.4307 72.4205 78.4605 72.215 78.487C72.0128 78.5102 71.8488 78.5301 71.7228 78.5467C71.4179 78.5865 71.1329 78.6511 70.8677 78.7406C70.6059 78.8268 70.3938 78.9577 70.2314 79.1333C70.0723 79.3057 69.9927 79.541 69.9927 79.8393C69.9927 80.247 70.1435 80.5552 70.4451 80.764C70.7501 80.9695 71.1362 81.0723 71.6035 81.0723ZM80.1371 74.3109V75.3052H76.1797V74.3109H80.1371ZM77.3331 72.4814H78.5064V79.7598C78.5064 80.0912 78.5545 80.3398 78.6506 80.5055C78.75 80.6679 78.8759 80.7773 79.0284 80.8336C79.1842 80.8867 79.3482 80.9132 79.5206 80.9132C79.6499 80.9132 79.7559 80.9065 79.8388 80.8933C79.9216 80.8767 79.9879 80.8635 80.0376 80.8535L80.2763 81.9075C80.1967 81.9373 80.0857 81.9672 79.9432 81.997C79.8007 82.0301 79.62 82.0467 79.4013 82.0467C79.0698 82.0467 78.745 81.9754 78.4268 81.8329C78.112 81.6904 77.8501 81.4733 77.6413 81.1816C77.4358 80.89 77.3331 80.5221 77.3331 80.0779V72.4814ZM82.9893 77.3535V81.9473H81.8161V71.7654H82.9893V75.5041H83.0888C83.2678 75.1097 83.5362 74.7965 83.8942 74.5645C84.2554 74.3291 84.736 74.2115 85.3359 74.2115C85.8563 74.2115 86.312 74.3159 86.7031 74.5247C87.0942 74.7302 87.3975 75.0467 87.6129 75.4743C87.8317 75.8985 87.9411 76.4387 87.9411 77.095V81.9473H86.7678V77.1745C86.7678 76.568 86.6103 76.099 86.2955 75.7676C85.9839 75.4328 85.5514 75.2654 84.9979 75.2654C84.6134 75.2654 84.2687 75.3466 83.9638 75.5091C83.6622 75.6715 83.4235 75.9084 83.2479 76.22C83.0755 76.5315 82.9893 76.9094 82.9893 77.3535ZM93.0392 82.1064C92.3034 82.1064 91.6687 81.944 91.1351 81.6191C90.6048 81.291 90.1955 80.8336 89.9071 80.247C89.6221 79.657 89.4796 78.9709 89.4796 78.1887C89.4796 77.4065 89.6221 76.7172 89.9071 76.1206C90.1955 75.5207 90.5965 75.0533 91.1103 74.7186C91.6273 74.3805 92.2305 74.2115 92.9199 74.2115C93.3176 74.2115 93.7104 74.2778 94.0982 74.4103C94.486 74.5429 94.839 74.7583 95.1571 75.0566C95.4753 75.3516 95.7289 75.7427 95.9178 76.2299C96.1067 76.7172 96.2012 77.3171 96.2012 78.0297V78.5268H90.3148V77.5126H95.008C95.008 77.0817 94.9218 76.6973 94.7495 76.3592C94.5804 76.0211 94.3385 75.7543 94.0236 75.5588C93.7121 75.3632 93.3442 75.2654 92.9199 75.2654C92.4526 75.2654 92.0482 75.3815 91.7069 75.6135C91.3688 75.8422 91.1086 76.1404 90.9263 76.5083C90.744 76.8762 90.6529 77.2707 90.6529 77.6916V78.3677C90.6529 78.9444 90.7523 79.4333 90.9512 79.8343C91.1533 80.2321 91.4334 80.5353 91.7914 80.7441C92.1493 80.9496 92.5653 81.0524 93.0392 81.0524C93.3475 81.0524 93.6259 81.0093 93.8745 80.9231C94.1264 80.8336 94.3435 80.7011 94.5257 80.5254C94.708 80.3464 94.8489 80.1243 94.9483 79.8592L96.0819 80.1774C95.9625 80.5618 95.762 80.8999 95.4803 81.1916C95.1986 81.4799 94.8506 81.7053 94.4363 81.8677C94.022 82.0268 93.5563 82.1064 93.0392 82.1064ZM97.736 81.9473V74.3109H98.8695V75.4643H98.949C99.0882 75.0865 99.3401 74.7799 99.7047 74.5446C100.069 74.3092 100.48 74.1916 100.938 74.1916C101.024 74.1916 101.132 74.1932 101.261 74.1966C101.39 74.1999 101.488 74.2048 101.554 74.2115V75.4047C101.514 75.3947 101.423 75.3798 101.281 75.3599C101.142 75.3367 100.994 75.3251 100.838 75.3251C100.467 75.3251 100.136 75.403 99.8439 75.5588C99.5556 75.7112 99.3269 75.9234 99.1578 76.1951C98.9921 76.4636 98.9093 76.7702 98.9093 77.1149V81.9473H97.736ZM102.695 81.9473V74.3109H103.868V81.9473H102.695ZM103.292 73.0382C103.063 73.0382 102.866 72.9603 102.7 72.8045C102.538 72.6487 102.456 72.4615 102.456 72.2427C102.456 72.024 102.538 71.8367 102.7 71.6809C102.866 71.5252 103.063 71.4473 103.292 71.4473C103.52 71.4473 103.716 71.5252 103.878 71.6809C104.044 71.8367 104.127 72.024 104.127 72.2427C104.127 72.4615 104.044 72.6487 103.878 72.8045C103.716 72.9603 103.52 73.0382 103.292 73.0382ZM106.941 77.3535V81.9473H105.767V74.3109H106.901V75.5041H107C107.179 75.1163 107.451 74.8047 107.816 74.5694C108.18 74.3308 108.651 74.2115 109.227 74.2115C109.744 74.2115 110.197 74.3175 110.585 74.5297C110.972 74.7385 111.274 75.0566 111.49 75.4842C111.705 75.9084 111.813 76.4454 111.813 77.095V81.9473H110.639V77.1745C110.639 76.5746 110.484 76.1073 110.172 75.7725C109.86 75.4345 109.433 75.2654 108.889 75.2654C108.515 75.2654 108.18 75.3466 107.885 75.5091C107.593 75.6715 107.363 75.9084 107.194 76.22C107.025 76.5315 106.941 76.9094 106.941 77.3535ZM116.789 84.97C116.222 84.97 115.735 84.8971 115.327 84.7512C114.92 84.6087 114.58 84.4198 114.308 84.1845C114.04 83.9525 113.826 83.7039 113.667 83.4387L114.602 82.7825C114.708 82.9217 114.842 83.0808 115.004 83.2598C115.167 83.4421 115.389 83.5995 115.67 83.7321C115.955 83.868 116.328 83.9359 116.789 83.9359C117.406 83.9359 117.914 83.7868 118.315 83.4885C118.716 83.1902 118.917 82.7228 118.917 82.0865V80.5353H118.817C118.731 80.6745 118.609 80.8469 118.45 81.0524C118.294 81.2546 118.068 81.4352 117.773 81.5943C117.482 81.7501 117.087 81.8279 116.59 81.8279C115.974 81.8279 115.42 81.6821 114.93 81.3904C114.442 81.0988 114.056 80.6745 113.771 80.1177C113.49 79.5609 113.349 78.8848 113.349 78.0893C113.349 77.3071 113.486 76.626 113.761 76.046C114.036 75.4627 114.419 75.0119 114.91 74.6937C115.4 74.3722 115.967 74.2115 116.61 74.2115C117.107 74.2115 117.502 74.2943 117.793 74.46C118.088 74.6225 118.314 74.8081 118.469 75.0169C118.629 75.2224 118.751 75.3914 118.837 75.524H118.957V74.3109H120.09V82.166C120.09 82.8223 119.941 83.3559 119.643 83.7669C119.348 84.1812 118.95 84.4844 118.45 84.6767C117.952 84.8722 117.399 84.97 116.789 84.97ZM116.749 80.774C117.22 80.774 117.618 80.6663 117.942 80.4508C118.267 80.2354 118.514 79.9255 118.683 79.5211C118.852 79.1168 118.937 78.6329 118.937 78.0694C118.937 77.5192 118.854 77.0337 118.688 76.6127C118.522 76.1918 118.277 75.862 117.952 75.6234C117.628 75.3848 117.227 75.2654 116.749 75.2654C116.252 75.2654 115.838 75.3914 115.506 75.6433C115.178 75.8952 114.931 76.2333 114.766 76.6575C114.603 77.0817 114.522 77.5524 114.522 78.0694C114.522 78.5997 114.605 79.0687 114.771 79.4764C114.94 79.8807 115.188 80.1989 115.516 80.4309C115.848 80.6596 116.259 80.774 116.749 80.774ZM127.397 76.0211L126.343 76.3194C126.277 76.1438 126.179 75.9731 126.05 75.8074C125.924 75.6383 125.751 75.4991 125.533 75.3897C125.314 75.2804 125.034 75.2257 124.692 75.2257C124.225 75.2257 123.836 75.3334 123.524 75.5488C123.216 75.7609 123.062 76.0311 123.062 76.3592C123.062 76.6509 123.168 76.8812 123.38 77.0502C123.592 77.2193 123.924 77.3601 124.374 77.4728L125.508 77.7512C126.191 77.917 126.699 78.1705 127.034 78.5119C127.369 78.85 127.536 79.2858 127.536 79.8194C127.536 80.2569 127.41 80.648 127.158 80.9927C126.91 81.3374 126.562 81.6092 126.114 81.8081C125.667 82.0069 125.147 82.1064 124.553 82.1064C123.774 82.1064 123.13 81.9373 122.619 81.5993C122.109 81.2612 121.786 80.7673 121.65 80.1177L122.763 79.8393C122.87 80.2503 123.07 80.5585 123.365 80.764C123.663 80.9695 124.053 81.0723 124.533 81.0723C125.08 81.0723 125.514 80.9563 125.836 80.7243C126.161 80.4889 126.323 80.2072 126.323 79.8791C126.323 79.6139 126.23 79.3919 126.045 79.2129C125.859 79.0306 125.574 78.8947 125.19 78.8052L123.917 78.5069C123.218 78.3412 122.704 78.0843 122.376 77.7363C122.051 77.385 121.888 76.9458 121.888 76.4189C121.888 75.988 122.009 75.6068 122.251 75.2754C122.497 74.944 122.83 74.6838 123.251 74.4949C123.675 74.3059 124.156 74.2115 124.692 74.2115C125.448 74.2115 126.041 74.3772 126.472 74.7086C126.906 75.0401 127.215 75.4776 127.397 76.0211ZM130.802 80.5552L130.723 81.0922C130.666 81.47 130.58 81.8743 130.464 82.3052C130.352 82.7361 130.234 83.1421 130.111 83.5233C129.989 83.9044 129.888 84.2077 129.808 84.4331H128.913C128.956 84.2209 129.013 83.9409 129.082 83.5929C129.152 83.2449 129.221 82.8554 129.291 82.4245C129.364 81.997 129.424 81.5595 129.47 81.112L129.53 80.5552H130.802ZM138.144 81.9473L135.817 74.3109H137.05L138.701 80.1575H138.78L140.411 74.3109H141.664L143.275 80.1376H143.354L145.005 74.3109H146.238L143.911 81.9473H142.757L141.087 76.0808H140.968L139.297 81.9473H138.144ZM150.381 82.1064C149.692 82.1064 149.087 81.9423 148.567 81.6142C148.05 81.286 147.645 80.827 147.354 80.237C147.065 79.6471 146.921 78.9577 146.921 78.1689C146.921 77.3734 147.065 76.679 147.354 76.0858C147.645 75.4925 148.05 75.0318 148.567 74.7037C149.087 74.3755 149.692 74.2115 150.381 74.2115C151.071 74.2115 151.674 74.3755 152.191 74.7037C152.711 75.0318 153.116 75.4925 153.404 76.0858C153.696 76.679 153.841 77.3734 153.841 78.1689C153.841 78.9577 153.696 79.6471 153.404 80.237C153.116 80.827 152.711 81.286 152.191 81.6142C151.674 81.9423 151.071 82.1064 150.381 82.1064ZM150.381 81.0524C150.905 81.0524 151.336 80.9181 151.674 80.6497C152.012 80.3812 152.262 80.0282 152.425 79.5907C152.587 79.1532 152.668 78.6793 152.668 78.1689C152.668 77.6584 152.587 77.1828 152.425 76.742C152.262 76.3012 152.012 75.9449 151.674 75.6731C151.336 75.4013 150.905 75.2654 150.381 75.2654C149.858 75.2654 149.427 75.4013 149.089 75.6731C148.751 75.9449 148.5 76.3012 148.338 76.742C148.175 77.1828 148.094 77.6584 148.094 78.1689C148.094 78.6793 148.175 79.1532 148.338 79.5907C148.5 80.0282 148.751 80.3812 149.089 80.6497C149.427 80.9181 149.858 81.0524 150.381 81.0524ZM155.382 81.9473V74.3109H156.516V75.4643H156.596C156.735 75.0865 156.987 74.7799 157.351 74.5446C157.716 74.3092 158.127 74.1916 158.584 74.1916C158.67 74.1916 158.778 74.1932 158.907 74.1966C159.037 74.1999 159.134 74.2048 159.201 74.2115V75.4047C159.161 75.3947 159.07 75.3798 158.927 75.3599C158.788 75.3367 158.641 75.3251 158.485 75.3251C158.114 75.3251 157.782 75.403 157.49 75.5588C157.202 75.7112 156.973 75.9234 156.804 76.1951C156.639 76.4636 156.556 76.7702 156.556 77.1149V81.9473H155.382ZM161.435 79.1632L161.415 77.7115H161.654L164.995 74.3109H166.447L162.887 77.9103H162.787L161.435 79.1632ZM160.341 81.9473V71.7654H161.515V81.9473H160.341ZM165.194 81.9473L162.211 78.1689L163.046 77.3535L166.685 81.9473H165.194ZM173.116 76.0211L172.062 76.3194C171.996 76.1438 171.898 75.9731 171.768 75.8074C171.643 75.6383 171.47 75.4991 171.251 75.3897C171.033 75.2804 170.753 75.2257 170.411 75.2257C169.944 75.2257 169.554 75.3334 169.243 75.5488C168.935 75.7609 168.781 76.0311 168.781 76.3592C168.781 76.6509 168.887 76.8812 169.099 77.0502C169.311 77.2193 169.642 77.3601 170.093 77.4728L171.227 77.7512C171.909 77.917 172.418 78.1705 172.753 78.5119C173.088 78.85 173.255 79.2858 173.255 79.8194C173.255 80.2569 173.129 80.648 172.877 80.9927C172.629 81.3374 172.281 81.6092 171.833 81.8081C171.386 82.0069 170.865 82.1064 170.272 82.1064C169.493 82.1064 168.848 81.9373 168.338 81.5993C167.828 81.2612 167.504 80.7673 167.369 80.1177L168.482 79.8393C168.588 80.2503 168.789 80.5585 169.084 80.764C169.382 80.9695 169.772 81.0723 170.252 81.0723C170.799 81.0723 171.233 80.9563 171.555 80.7243C171.879 80.4889 172.042 80.2072 172.042 79.8791C172.042 79.6139 171.949 79.3919 171.763 79.2129C171.578 79.0306 171.293 78.8947 170.908 78.8052L169.636 78.5069C168.936 78.3412 168.423 78.0843 168.094 77.7363C167.77 77.385 167.607 76.9458 167.607 76.4189C167.607 75.988 167.728 75.6068 167.97 75.2754C168.215 74.944 168.549 74.6838 168.969 74.4949C169.394 74.3059 169.874 74.2115 170.411 74.2115C171.167 74.2115 171.76 74.3772 172.191 74.7086C172.625 75.0401 172.933 75.4776 173.116 76.0211ZM175.944 77.3535V81.9473H174.771V71.7654H175.944V75.5041H176.044C176.223 75.1097 176.491 74.7965 176.849 74.5645C177.211 74.3291 177.691 74.2115 178.291 74.2115C178.811 74.2115 179.267 74.3159 179.658 74.5247C180.049 74.7302 180.353 75.0467 180.568 75.4743C180.787 75.8985 180.896 76.4387 180.896 77.095V81.9473H179.723V77.1745C179.723 76.568 179.565 76.099 179.251 75.7676C178.939 75.4328 178.506 75.2654 177.953 75.2654C177.568 75.2654 177.224 75.3466 176.919 75.5091C176.617 75.6715 176.379 75.9084 176.203 76.22C176.031 76.5315 175.944 76.9094 175.944 77.3535ZM185.895 82.1064C185.205 82.1064 184.601 81.9423 184.08 81.6142C183.563 81.286 183.159 80.827 182.867 80.237C182.579 79.6471 182.435 78.9577 182.435 78.1689C182.435 77.3734 182.579 76.679 182.867 76.0858C183.159 75.4925 183.563 75.0318 184.08 74.7037C184.601 74.3755 185.205 74.2115 185.895 74.2115C186.584 74.2115 187.188 74.3755 187.705 74.7037C188.225 75.0318 188.629 75.4925 188.918 76.0858C189.209 76.679 189.355 77.3734 189.355 78.1689C189.355 78.9577 189.209 79.6471 188.918 80.237C188.629 80.827 188.225 81.286 187.705 81.6142C187.188 81.9423 186.584 82.1064 185.895 82.1064ZM185.895 81.0524C186.419 81.0524 186.849 80.9181 187.188 80.6497C187.526 80.3812 187.776 80.0282 187.938 79.5907C188.101 79.1532 188.182 78.6793 188.182 78.1689C188.182 77.6584 188.101 77.1828 187.938 76.742C187.776 76.3012 187.526 75.9449 187.188 75.6731C186.849 75.4013 186.419 75.2654 185.895 75.2654C185.371 75.2654 184.94 75.4013 184.602 75.6731C184.264 75.9449 184.014 76.3012 183.852 76.742C183.689 77.1828 183.608 77.6584 183.608 78.1689C183.608 78.6793 183.689 79.1532 183.852 79.5907C184.014 80.0282 184.264 80.3812 184.602 80.6497C184.94 80.9181 185.371 81.0524 185.895 81.0524ZM190.896 84.8109V74.3109H192.03V75.524H192.169C192.255 75.3914 192.374 75.2224 192.527 75.0169C192.683 74.8081 192.905 74.6225 193.193 74.46C193.485 74.2943 193.879 74.2115 194.376 74.2115C195.019 74.2115 195.586 74.3722 196.077 74.6937C196.567 75.0152 196.95 75.4709 197.225 76.0609C197.5 76.6509 197.638 77.3469 197.638 78.149C197.638 78.9577 197.5 79.6587 197.225 80.252C196.95 80.8419 196.569 81.2993 196.081 81.6241C195.594 81.9456 195.032 82.1064 194.396 82.1064C193.906 82.1064 193.513 82.0252 193.218 81.8627C192.923 81.697 192.696 81.5098 192.537 81.301C192.378 81.0888 192.255 80.9132 192.169 80.774H192.069V84.8109H190.896ZM192.05 78.1291C192.05 78.7058 192.134 79.2145 192.303 79.6554C192.472 80.0929 192.719 80.4359 193.044 80.6845C193.369 80.9297 193.766 81.0524 194.237 81.0524C194.728 81.0524 195.137 80.9231 195.465 80.6646C195.796 80.4028 196.045 80.0514 196.211 79.6106C196.38 79.1665 196.464 78.6726 196.464 78.1291C196.464 77.5922 196.381 77.1083 196.216 76.6774C196.053 76.2432 195.806 75.9002 195.475 75.6483C195.147 75.3931 194.734 75.2654 194.237 75.2654C193.76 75.2654 193.359 75.3864 193.034 75.6284C192.709 75.867 192.464 76.2018 192.298 76.6326C192.132 77.0602 192.05 77.559 192.05 78.1291ZM204.586 76.0211L203.532 76.3194C203.466 76.1438 203.368 75.9731 203.239 75.8074C203.113 75.6383 202.941 75.4991 202.722 75.3897C202.503 75.2804 202.223 75.2257 201.882 75.2257C201.415 75.2257 201.025 75.3334 200.714 75.5488C200.405 75.7609 200.251 76.0311 200.251 76.3592C200.251 76.6509 200.357 76.8812 200.569 77.0502C200.782 77.2193 201.113 77.3601 201.564 77.4728L202.697 77.7512C203.38 77.917 203.889 78.1705 204.224 78.5119C204.558 78.85 204.726 79.2858 204.726 79.8194C204.726 80.2569 204.6 80.648 204.348 80.9927C204.099 81.3374 203.751 81.6092 203.304 81.8081C202.856 82.0069 202.336 82.1064 201.743 82.1064C200.964 82.1064 200.319 81.9373 199.809 81.5993C199.298 81.2612 198.975 80.7673 198.839 80.1177L199.953 79.8393C200.059 80.2503 200.26 80.5585 200.555 80.764C200.853 80.9695 201.242 81.0723 201.723 81.0723C202.27 81.0723 202.704 80.9563 203.025 80.7243C203.35 80.4889 203.513 80.2072 203.513 79.8791C203.513 79.6139 203.42 79.3919 203.234 79.2129C203.049 79.0306 202.764 78.8947 202.379 78.8052L201.106 78.5069C200.407 78.3412 199.893 78.0843 199.565 77.7363C199.24 77.385 199.078 76.9458 199.078 76.4189C199.078 75.988 199.199 75.6068 199.441 75.2754C199.686 74.944 200.019 74.6838 200.44 74.4949C200.864 74.3059 201.345 74.2115 201.882 74.2115C202.638 74.2115 203.231 74.3772 203.662 74.7086C204.096 75.0401 204.404 75.4776 204.586 76.0211ZM207.992 80.5552L207.912 81.0922C207.856 81.47 207.77 81.8743 207.654 82.3052C207.541 82.7361 207.423 83.1421 207.301 83.5233C207.178 83.9044 207.077 84.2077 206.998 84.4331H206.103C206.146 84.2209 206.202 83.9409 206.272 83.5929C206.341 83.2449 206.411 82.8554 206.48 82.4245C206.553 81.997 206.613 81.5595 206.659 81.112L206.719 80.5552H207.992ZM215.85 82.1262C215.366 82.1262 214.927 82.0351 214.533 81.8528C214.138 81.6672 213.825 81.4004 213.593 81.0524C213.361 80.7011 213.245 80.2768 213.245 79.7797C213.245 79.3422 213.331 78.9875 213.504 78.7157C213.676 78.4406 213.906 78.2252 214.195 78.0694C214.483 77.9136 214.801 77.7976 215.149 77.7214C215.501 77.6419 215.854 77.5789 216.208 77.5325C216.672 77.4728 217.048 77.4281 217.337 77.3983C217.628 77.3651 217.841 77.3104 217.973 77.2342C218.109 77.158 218.177 77.0254 218.177 76.8365V76.7967C218.177 76.3062 218.043 75.925 217.774 75.6532C217.509 75.3815 217.106 75.2456 216.566 75.2456C216.006 75.2456 215.567 75.3682 215.249 75.6135C214.931 75.8587 214.707 76.1206 214.578 76.399L213.464 76.0012C213.663 75.5372 213.928 75.176 214.259 74.9174C214.594 74.6556 214.959 74.4733 215.353 74.3706C215.751 74.2645 216.142 74.2115 216.526 74.2115C216.772 74.2115 217.053 74.2413 217.372 74.301C217.693 74.3573 218.003 74.475 218.301 74.6539C218.603 74.8329 218.853 75.103 219.052 75.4643C219.251 75.8256 219.35 76.3095 219.35 76.916V81.9473H218.177V80.9132H218.117C218.038 81.0789 217.905 81.2562 217.72 81.4451C217.534 81.6341 217.287 81.7948 216.979 81.9274C216.671 82.06 216.294 82.1262 215.85 82.1262ZM216.029 81.0723C216.493 81.0723 216.884 80.9811 217.203 80.7988C217.524 80.6165 217.766 80.3812 217.928 80.0929C218.094 79.8045 218.177 79.5012 218.177 79.1831V78.1092C218.127 78.1689 218.018 78.2235 217.849 78.2733C217.683 78.3197 217.491 78.3611 217.272 78.3975C217.057 78.4307 216.846 78.4605 216.641 78.487C216.439 78.5102 216.275 78.5301 216.149 78.5467C215.844 78.5865 215.559 78.6511 215.294 78.7406C215.032 78.8268 214.82 78.9577 214.657 79.1333C214.498 79.3057 214.419 79.541 214.419 79.8393C214.419 80.247 214.569 80.5552 214.871 80.764C215.176 80.9695 215.562 81.0723 216.029 81.0723ZM224.344 82.1064C223.628 82.1064 223.012 81.9373 222.495 81.5993C221.978 81.2612 221.58 80.7955 221.301 80.2022C221.023 79.609 220.884 78.9312 220.884 78.1689C220.884 77.3933 221.026 76.7089 221.311 76.1156C221.6 75.519 222.001 75.0533 222.515 74.7186C223.032 74.3805 223.635 74.2115 224.324 74.2115C224.861 74.2115 225.345 74.3109 225.776 74.5098C226.207 74.7086 226.56 74.987 226.835 75.345C227.11 75.7029 227.281 76.1206 227.347 76.5978H226.174C226.084 76.2498 225.885 75.9416 225.577 75.6731C225.272 75.4013 224.861 75.2654 224.344 75.2654C223.887 75.2654 223.486 75.3848 223.141 75.6234C222.8 75.8587 222.533 76.1918 222.341 76.6227C222.152 77.0502 222.057 77.5524 222.057 78.1291C222.057 78.719 222.15 79.2328 222.336 79.6703C222.525 80.1078 222.79 80.4475 223.131 80.6895C223.476 80.9314 223.88 81.0524 224.344 81.0524C224.649 81.0524 224.926 80.9993 225.174 80.8933C225.423 80.7872 225.633 80.6348 225.806 80.4359C225.978 80.237 226.101 79.9984 226.174 79.72H227.347C227.281 80.1708 227.117 80.5768 226.855 80.938C226.596 81.296 226.253 81.581 225.826 81.7931C225.401 82.002 224.908 82.1064 224.344 82.1064ZM232.133 74.3109V75.3052H228.176V74.3109H232.133ZM229.329 72.4814H230.502V79.7598C230.502 80.0912 230.551 80.3398 230.647 80.5055C230.746 80.6679 230.872 80.7773 231.025 80.8336C231.18 80.8867 231.344 80.9132 231.517 80.9132C231.646 80.9132 231.752 80.9065 231.835 80.8933C231.918 80.8767 231.984 80.8635 232.034 80.8535L232.272 81.9075C232.193 81.9373 232.082 81.9672 231.939 81.997C231.797 82.0301 231.616 82.0467 231.397 82.0467C231.066 82.0467 230.741 81.9754 230.423 81.8329C230.108 81.6904 229.846 81.4733 229.637 81.1816C229.432 80.89 229.329 80.5221 229.329 80.0779V72.4814ZM233.648 81.9473V74.3109H234.821V81.9473H233.648ZM234.245 73.0382C234.016 73.0382 233.819 72.9603 233.653 72.8045C233.491 72.6487 233.409 72.4615 233.409 72.2427C233.409 72.024 233.491 71.8367 233.653 71.6809C233.819 71.5252 234.016 71.4473 234.245 71.4473C234.473 71.4473 234.669 71.5252 234.831 71.6809C234.997 71.8367 235.08 72.024 235.08 72.2427C235.08 72.4615 234.997 72.6487 234.831 72.8045C234.669 72.9603 234.473 73.0382 234.245 73.0382ZM242.965 74.3109L240.141 81.9473H238.948L236.124 74.3109H237.396L239.504 80.3961H239.584L241.692 74.3109H242.965ZM244.263 81.9473V74.3109H245.437V81.9473H244.263ZM244.86 73.0382C244.631 73.0382 244.434 72.9603 244.268 72.8045C244.106 72.6487 244.025 72.4615 244.025 72.2427C244.025 72.024 244.106 71.8367 244.268 71.6809C244.434 71.5252 244.631 71.4473 244.86 71.4473C245.089 71.4473 245.284 71.5252 245.447 71.6809C245.612 71.8367 245.695 72.024 245.695 72.2427C245.695 72.4615 245.612 72.6487 245.447 72.8045C245.284 72.9603 245.089 73.0382 244.86 73.0382ZM250.657 74.3109V75.3052H246.699V74.3109H250.657ZM247.853 72.4814H249.026V79.7598C249.026 80.0912 249.074 80.3398 249.17 80.5055C249.27 80.6679 249.395 80.7773 249.548 80.8336C249.704 80.8867 249.868 80.9132 250.04 80.9132C250.169 80.9132 250.275 80.9065 250.358 80.8933C250.441 80.8767 250.507 80.8635 250.557 80.8535L250.796 81.9075C250.716 81.9373 250.605 81.9672 250.463 81.997C250.32 82.0301 250.14 82.0467 249.921 82.0467C249.589 82.0467 249.265 81.9754 248.946 81.8329C248.632 81.6904 248.37 81.4733 248.161 81.1816C247.955 80.89 247.853 80.5221 247.853 80.0779V72.4814ZM252.172 81.9473V74.3109H253.345V81.9473H252.172ZM252.768 73.0382C252.539 73.0382 252.342 72.9603 252.176 72.8045C252.014 72.6487 251.933 72.4615 251.933 72.2427C251.933 72.024 252.014 71.8367 252.176 71.6809C252.342 71.5252 252.539 71.4473 252.768 71.4473C252.997 71.4473 253.192 71.5252 253.355 71.6809C253.52 71.8367 253.603 72.024 253.603 72.2427C253.603 72.4615 253.52 72.6487 253.355 72.8045C253.192 72.9603 252.997 73.0382 252.768 73.0382ZM258.445 82.1064C257.71 82.1064 257.075 81.944 256.541 81.6191C256.011 81.291 255.602 80.8336 255.313 80.247C255.028 79.657 254.886 78.9709 254.886 78.1887C254.886 77.4065 255.028 76.7172 255.313 76.1206C255.602 75.5207 256.003 75.0533 256.517 74.7186C257.034 74.3805 257.637 74.2115 258.326 74.2115C258.724 74.2115 259.117 74.2778 259.504 74.4103C259.892 74.5429 260.245 74.7583 260.563 75.0566C260.882 75.3516 261.135 75.7427 261.324 76.2299C261.513 76.7172 261.607 77.3171 261.607 78.0297V78.5268H255.721V77.5126H260.414C260.414 77.0817 260.328 76.6973 260.156 76.3592C259.987 76.0211 259.745 75.7543 259.43 75.5588C259.118 75.3632 258.75 75.2654 258.326 75.2654C257.859 75.2654 257.454 75.3815 257.113 75.6135C256.775 75.8422 256.515 76.1404 256.333 76.5083C256.15 76.8762 256.059 77.2707 256.059 77.6916V78.3677C256.059 78.9444 256.159 79.4333 256.357 79.8343C256.56 80.2321 256.84 80.5353 257.198 80.7441C257.556 80.9496 257.972 81.0524 258.445 81.0524C258.754 81.0524 259.032 81.0093 259.281 80.9231C259.533 80.8336 259.75 80.7011 259.932 80.5254C260.114 80.3464 260.255 80.1243 260.355 79.8592L261.488 80.1774C261.369 80.5618 261.168 80.8999 260.887 81.1916C260.605 81.4799 260.257 81.7053 259.843 81.8677C259.428 82.0268 258.963 82.1064 258.445 82.1064ZM268.551 76.0211L267.497 76.3194C267.431 76.1438 267.333 75.9731 267.204 75.8074C267.078 75.6383 266.906 75.4991 266.687 75.3897C266.468 75.2804 266.188 75.2257 265.847 75.2257C265.379 75.2257 264.99 75.3334 264.678 75.5488C264.37 75.7609 264.216 76.0311 264.216 76.3592C264.216 76.6509 264.322 76.8812 264.534 77.0502C264.746 77.2193 265.078 77.3601 265.529 77.4728L266.662 77.7512C267.345 77.917 267.854 78.1705 268.188 78.5119C268.523 78.85 268.691 79.2858 268.691 79.8194C268.691 80.2569 268.565 80.648 268.313 80.9927C268.064 81.3374 267.716 81.6092 267.269 81.8081C266.821 82.0069 266.301 82.1064 265.708 82.1064C264.929 82.1064 264.284 81.9373 263.774 81.5993C263.263 81.2612 262.94 80.7673 262.804 80.1177L263.918 79.8393C264.024 80.2503 264.224 80.5585 264.519 80.764C264.818 80.9695 265.207 81.0723 265.688 81.0723C266.235 81.0723 266.669 80.9563 266.99 80.7243C267.315 80.4889 267.477 80.2072 267.477 79.8791C267.477 79.6139 267.385 79.3919 267.199 79.2129C267.013 79.0306 266.728 78.8947 266.344 78.8052L265.071 78.5069C264.372 78.3412 263.858 78.0843 263.53 77.7363C263.205 77.385 263.043 76.9458 263.043 76.4189C263.043 75.988 263.164 75.6068 263.406 75.2754C263.651 74.944 263.984 74.6838 264.405 74.4949C264.829 74.3059 265.31 74.2115 265.847 74.2115C266.602 74.2115 267.196 74.3772 267.627 74.7086C268.061 75.0401 268.369 75.4776 268.551 76.0211Z" fill="#FFE3D8"/>
<circle cx="311.5" cy="54" r="14" fill="#FFE3D8"/>
<circle cx="312.963" cy="44.4627" r="9.46272" fill="#1C003A"/>
<circle cx="303.22" cy="35.7204" r="12.7204" fill="#FF7EFC"/>
</svg>
